<svg width="50" height="50" viewBox="0 0 24 24" xmlns="http://www.w3.org/2000/svg"><path d="M18.6 23H5.4a3 3 0 0 1-2.98-3.37l.39-3.13.86-6.87A3.01 3.01 0 0 1 6.65 7h10.7a3.01 3.01 0 0 1 2.98 2.63l.86 6.87.39 3.13A3 3 0 0 1 18.6 23Z" fill="#e7f8ee" class="fill-f19b5f"></path><path d="M21.19 16.5A2.976 2.976 0 0 1 18.6 18H5.4a2.976 2.976 0 0 1-2.59-1.5l.86-6.87A3.01 3.01 0 0 1 6.65 7h10.7a3.01 3.01 0 0 1 2.98 2.63Z" fill="#a7d9bd" class="fill-ffce69"></path><path d="M5.4 24h13.2a4 4 0 0 0 3.968-4.5l-1.25-10A4.005 4.005 0 0 0 17.352 6H17V5A5 5 0 0 0 7 5v1h-.352A4.005 4.005 0 0 0 2.68 9.5l-1.25 10A4 4 0 0 0 5.4 24ZM9 5a3 3 0 0 1 6 0v1H9ZM3.414 19.752l1.25-10A2 2 0 0 1 6.648 8H7v2a1 1 0 0 0 2 0V8h6v2a1 1 0 0 0 2 0V8h.352a2 2 0 0 1 1.984 1.752l1.25 10A2 2 0 0 1 18.6 22H5.4a2 2 0 0 1-1.984-2.248Z" data-name="Layer 4" fill="#2e7f42" class="fill-6c2e7c"></path></svg>