<svg width="140" height="141" viewBox="0 0 140 141" fill="none" xmlns="http://www.w3.org/2000/svg">
<circle cx="69.9999" cy="70.0036" r="70" fill="#2E8D55"/>
<g clip-path="url(#clip0_2_95)">
<path d="M85.761 85.9022H62.2221C61.5685 85.9022 60.9417 85.6426 60.4796 85.1804C60.0175 84.7183 59.7578 84.0915 59.7578 83.4379C59.7578 82.7844 60.0175 82.1576 60.4796 81.6954C60.9417 81.2333 61.5685 80.9736 62.2221 80.9736H85.761C86.4145 80.9736 87.0413 81.2333 87.5035 81.6954C87.9656 82.1576 88.2253 82.7844 88.2253 83.4379C88.2253 84.0915 87.9656 84.7183 87.5035 85.1804C87.0413 85.6426 86.4145 85.9022 85.761 85.9022ZM99.3244 85.9022H98.733C98.0794 85.9022 97.4526 85.6426 96.9905 85.1804C96.5283 84.7183 96.2687 84.0915 96.2687 83.4379C96.2687 82.7844 96.5283 82.1576 96.9905 81.6954C97.4526 81.2333 98.0794 80.9736 98.733 80.9736H99.3244C99.4866 80.9762 99.6476 80.9466 99.7982 80.8863C99.9488 80.8261 100.086 80.7364 100.201 80.6227C100.317 80.5089 100.409 80.3733 100.472 80.2237C100.534 80.0741 100.566 79.9135 100.566 79.7514V71.2939C100.566 71.0166 100.472 70.7475 100.3 70.5296C100.129 70.3116 99.8895 70.1574 99.6201 70.0913H85.0907C83.4576 70.0914 81.891 69.444 80.7344 68.291C79.5777 67.1381 78.9253 65.5736 78.9201 63.9405V50.7319C78.9228 50.5707 78.893 50.4105 78.8325 50.261C78.772 50.1115 78.6821 49.9757 78.5681 49.8617C78.454 49.7477 78.3182 49.6577 78.1687 49.5972C78.0192 49.5368 77.8591 49.507 77.6978 49.5096H48.6587C48.0051 49.5096 47.3783 49.25 46.9162 48.7879C46.454 48.3257 46.1944 47.6989 46.1944 47.0453C46.1944 46.3918 46.454 45.765 46.9162 45.3028C47.3783 44.8407 48.0051 44.5811 48.6587 44.5811H77.6978C78.5056 44.5811 79.3054 44.7402 80.0517 45.0493C80.7979 45.3584 81.476 45.8114 82.0471 46.3826C82.6183 46.9538 83.0714 47.6318 83.3805 48.3781C83.6896 49.1243 83.8487 49.9242 83.8487 50.7319V63.9011C83.8487 64.0632 83.8809 64.2238 83.9436 64.3734C84.0062 64.523 84.098 64.6586 84.2136 64.7724C84.3292 64.8862 84.4663 64.9758 84.6169 65.036C84.7675 65.0963 84.9285 65.126 85.0907 65.1233H99.3244C99.7745 65.1292 100.223 65.1754 100.665 65.2613L101.099 65.3993C102.375 65.7725 103.495 66.552 104.289 67.6193C105.082 68.6867 105.506 69.9837 105.495 71.3136V79.7711C105.485 81.4008 104.83 82.9602 103.674 84.1088C102.518 85.2575 100.954 85.9022 99.3244 85.9022Z" fill="white"/>
<path d="M100.171 70.1699C99.6643 70.1698 99.1703 70.0123 98.757 69.7191C98.3438 69.426 98.0319 69.0117 97.8644 68.5336L93.9215 57.5724C93.8154 57.4245 93.6766 57.3031 93.5159 57.2176C93.3552 57.1321 93.1769 57.0849 92.995 57.0796H81.3438C80.6903 57.0796 80.0634 56.82 79.6013 56.3578C79.1392 55.8957 78.8795 55.2689 78.8795 54.6153C78.8795 53.9617 79.1392 53.3349 79.6013 52.8728C80.0634 52.4106 80.6903 52.151 81.3438 52.151H92.995C94.0874 52.1553 95.1585 52.4542 96.0954 53.0163C97.0322 53.5784 97.8 54.3828 98.3178 55.3447C98.3785 55.4592 98.4312 55.5778 98.4755 55.6996L102.418 66.8776C102.634 67.4947 102.598 68.172 102.317 68.7624C102.037 69.3529 101.535 69.809 100.92 70.0319C100.677 70.1091 100.425 70.1555 100.171 70.1699ZM92.2458 96.4293C90.4717 96.4293 88.7375 95.9032 87.2624 94.9176C85.7872 93.9319 84.6375 92.531 83.9586 90.892C83.2797 89.2529 83.1021 87.4493 83.4482 85.7093C83.7943 83.9693 84.6486 82.371 85.9031 81.1165C87.1575 79.8621 88.7559 79.0078 90.4959 78.6617C92.2359 78.3155 94.0394 78.4932 95.6785 79.1721C97.3175 79.851 98.7185 81.0007 99.7041 82.4758C100.69 83.9509 101.216 85.6852 101.216 87.4593C101.216 89.8383 100.271 92.1198 98.5886 93.802C96.9064 95.4842 94.6248 96.4293 92.2458 96.4293ZM92.2458 83.4179C91.4426 83.3983 90.6518 83.6185 89.9743 84.0505C89.2969 84.4825 88.7635 85.1067 88.4425 85.8432C88.1214 86.5797 88.0272 87.3952 88.1718 88.1856C88.3165 88.9759 88.6934 89.7052 89.2545 90.2803C89.8155 90.8554 90.5353 91.2502 91.3218 91.4143C92.1084 91.5784 92.926 91.5044 93.6702 91.2016C94.4144 90.8988 95.0515 90.3811 95.5001 89.7145C95.9487 89.0479 96.1884 88.2628 96.1887 87.4593C96.189 86.4043 95.7768 85.391 95.04 84.6359C94.3033 83.8807 93.3005 83.4436 92.2458 83.4179ZM55.7152 96.4293C53.9411 96.4293 52.2069 95.9032 50.7318 94.9176C49.2567 93.9319 48.107 92.531 47.428 90.892C46.7491 89.2529 46.5715 87.4493 46.9176 85.7093C47.2637 83.9693 48.118 82.371 49.3725 81.1165C50.627 79.8621 52.2253 79.0078 53.9653 78.6617C55.7053 78.3155 57.5089 78.4932 59.1479 79.1721C60.787 79.851 62.1879 81.0007 63.1735 82.4758C64.1592 83.9509 64.6852 85.6852 64.6852 87.4593C64.6852 89.8383 63.7402 92.1198 62.058 93.802C60.3758 95.4842 58.0942 96.4293 55.7152 96.4293ZM55.7152 83.4179C54.9159 83.4179 54.1346 83.6549 53.4699 84.099C52.8053 84.543 52.2873 85.1742 51.9815 85.9127C51.6756 86.6512 51.5955 87.4638 51.7515 88.2477C51.9074 89.0317 52.2923 89.7518 52.8575 90.317C53.4227 90.8822 54.1428 91.2671 54.9268 91.4231C55.7108 91.579 56.5234 91.499 57.2618 91.1931C58.0003 90.8872 58.6315 90.3692 59.0756 89.7046C59.5196 89.04 59.7567 88.2586 59.7567 87.4593C59.7567 86.3874 59.3309 85.3595 58.573 84.6016C57.8151 83.8437 56.7871 83.4179 55.7152 83.4179Z" fill="white"/>
<path d="M81.3439 85.9034C81.0195 85.906 80.6979 85.8441 80.3977 85.7212C80.0976 85.5983 79.8249 85.4169 79.5955 85.1875C79.3662 84.9581 79.1847 84.6854 79.0618 84.3853C78.9389 84.0851 78.877 83.7635 78.8796 83.4391V61.8914C78.8796 61.2378 79.1392 60.611 79.6014 60.1489C80.0635 59.6868 80.6903 59.4271 81.3439 59.4271C81.9974 59.4271 82.6242 59.6868 83.0864 60.1489C83.5485 60.611 83.8082 61.2378 83.8082 61.8914V83.4391C83.8108 83.7635 83.7488 84.0851 83.6259 84.3853C83.503 84.6854 83.3216 84.9581 83.0922 85.1875C82.8629 85.4169 82.5902 85.5983 82.29 85.7212C81.9898 85.8441 81.6682 85.906 81.3439 85.9034ZM56.0899 61.9703H39.9439C39.2903 61.9703 38.6635 61.7106 38.2014 61.2485C37.7392 60.7864 37.4796 60.1596 37.4796 59.506C37.4796 58.8524 37.7392 58.2256 38.2014 57.7635C38.6635 57.3013 39.2903 57.0417 39.9439 57.0417H56.0899C56.7434 57.0417 57.3702 57.3013 57.8324 57.7635C58.2945 58.2256 58.5542 58.8524 58.5542 59.506C58.5542 60.1596 58.2945 60.7864 57.8324 61.2485C57.3702 61.7106 56.7434 61.9703 56.0899 61.9703ZM59.1259 72.9708H50.6882C50.0346 72.9708 49.4078 72.7112 48.9456 72.2491C48.4835 71.7869 48.2239 71.1601 48.2239 70.5066C48.2239 69.853 48.4835 69.2262 48.9456 68.764C49.4078 68.3019 50.0346 68.0423 50.6882 68.0423H59.1259C59.7794 68.0423 60.4062 68.3019 60.8684 68.764C61.3305 69.2262 61.5902 69.853 61.5902 70.5066C61.5902 71.1601 61.3305 71.7869 60.8684 72.2491C60.4062 72.7112 59.7794 72.9708 59.1259 72.9708Z" fill="white"/>
</g>
<defs>
<clipPath id="clip0_2_95">
<rect width="69" height="69" fill="white" transform="translate(35.9999 36.0043)"/>
</clipPath>
</defs>
</svg>
