<svg width="141" height="141" viewBox="0 0 141 141" fill="none" xmlns="http://www.w3.org/2000/svg">
<circle cx="70.0014" cy="70.0036" r="70" fill="#2E8D55"/>
<g clip-path="url(#clip0_2_106)">
<path d="M88.0214 69.0882C87.5193 69.0882 87.0379 68.8888 86.6829 68.5338C86.3279 68.1789 86.1285 67.6974 86.1285 67.1954V61.85C86.1285 54.2785 79.1325 48.2214 70.5314 48.2214C61.9302 48.2214 54.9342 54.3542 54.9342 61.85V67.1954C54.9342 67.6974 54.7348 68.1789 54.3798 68.5338C54.0248 68.8888 53.5434 69.0882 53.0414 69.0882C52.5393 69.0882 52.0579 68.8888 51.7029 68.5338C51.3479 68.1789 51.1485 67.6974 51.1485 67.1954V61.85C51.1485 52.2191 59.8556 44.3751 70.5314 44.3751C81.2071 44.3751 89.9142 52.2191 89.9142 61.85V67.1954C89.9162 67.4445 89.8686 67.6916 89.7742 67.9221C89.6798 68.1527 89.5405 68.3622 89.3643 68.5383C89.1881 68.7145 88.9787 68.8539 88.7481 68.9483C88.5175 69.0427 88.2705 69.0903 88.0214 69.0882Z" fill="white" stroke="white" stroke-width="0.5"/>
<path d="M82.9035 86.9035C82.4015 86.9035 81.9201 86.7041 81.5651 86.3491C81.2101 85.9941 81.0107 85.5126 81.0107 85.0106V67.0361C81.0264 66.5446 81.2328 66.0786 81.586 65.7366C81.9393 65.3946 82.4118 65.2035 82.9035 65.2038C89.4301 65.2038 94.7452 70.0949 94.7452 76.0915C94.7452 82.0881 89.4301 86.9035 82.9035 86.9035ZM84.7964 69.1258V82.9209C86.4536 82.6465 87.9671 81.8135 89.0855 80.5601C90.2038 79.3068 90.8598 77.7086 90.9444 76.0309C90.8632 74.3506 90.2087 72.7488 89.0901 71.4924C87.9714 70.236 86.456 69.4007 84.7964 69.1258ZM58.0995 86.9035C51.573 86.9035 46.2578 82.0275 46.2578 76.0309C46.2578 70.0343 51.573 65.2038 58.0995 65.2038C58.6016 65.2038 59.083 65.4032 59.438 65.7582C59.793 66.1132 59.9924 66.5946 59.9924 67.0966V85.0106C59.9924 85.5126 59.793 85.9941 59.438 86.3491C59.083 86.7041 58.6016 86.9035 58.0995 86.9035ZM56.2067 69.1258C54.547 69.4007 53.0317 70.236 51.913 71.4924C50.7943 72.7488 50.1399 74.3506 50.0587 76.0309C50.1433 77.7086 50.7992 79.3068 51.9176 80.5601C53.036 81.8135 54.5495 82.6465 56.2067 82.9209V69.1258Z" fill="white" stroke="white" stroke-width="0.5"/>
<path d="M82.283 93.0658H76.0139C75.5119 93.0658 75.0304 92.8664 74.6754 92.5114C74.3205 92.1565 74.121 91.675 74.121 91.173C74.121 90.671 74.3205 90.1895 74.6754 89.8345C75.0304 89.4796 75.5119 89.2801 76.0139 89.2801H82.283C83.263 89.2801 84.2028 88.8908 84.8957 88.1979C85.5886 87.505 85.9779 86.5652 85.9779 85.5853V84.7524C85.9779 84.2504 86.1773 83.7689 86.5323 83.414C86.8873 83.059 87.3687 82.8596 87.8707 82.8596C88.3728 82.8596 88.8542 83.059 89.2092 83.414C89.5642 83.7689 89.7636 84.2504 89.7636 84.7524V85.5853C89.7636 87.5692 88.9755 89.472 87.5726 90.8748C86.1697 92.2777 84.267 93.0658 82.283 93.0658Z" fill="white" stroke="white" stroke-width="0.5"/>
<path d="M72.7727 96.6254H69.0324C67.6589 96.6254 66.3416 96.0798 65.3704 95.1086C64.3992 94.1374 63.8535 92.8201 63.8535 91.4466V91.2346C63.8575 89.8637 64.4049 88.5503 65.3757 87.5824C66.3465 86.6144 67.6615 86.0709 69.0324 86.0709H72.7727C74.1422 86.0709 75.4556 86.6149 76.424 87.5833C77.3924 88.5517 77.9364 89.8651 77.9364 91.2346V91.4466C77.9364 92.8175 77.3928 94.1325 76.4249 95.1032C75.4569 96.074 74.1436 96.6214 72.7727 96.6254ZM69.0627 89.8566C68.6958 89.8566 68.3437 90.0013 68.0829 90.2593C67.8221 90.5173 67.6735 90.8677 67.6695 91.2346V91.4466C67.6695 91.8161 67.8163 92.1704 68.0776 92.4317C68.3388 92.6929 68.6932 92.8397 69.0627 92.8397H72.7727C73.1395 92.8357 73.49 92.6872 73.748 92.4264C74.006 92.1655 74.1507 91.8135 74.1507 91.4466V91.2346C74.1507 90.8691 74.0055 90.5186 73.7471 90.2602C73.4886 90.0018 73.1381 89.8566 72.7727 89.8566H69.0627Z" fill="white" stroke="white" stroke-width="0.5"/>
</g>
<defs>
<clipPath id="clip0_2_106">
<rect width="53" height="53" fill="white" transform="translate(44.0015 44.0037)"/>
</clipPath>
</defs>
</svg>
