<svg width="140" height="141" viewBox="0 0 140 141" fill="none" xmlns="http://www.w3.org/2000/svg">
<circle cx="70.0008" cy="70.0036" r="70" fill="#2E8D55"/>
<path d="M75.2226 44.0037C72.9507 44.0037 70.6765 44.8644 68.9443 46.59C65.48 50.0406 65.4799 55.655 68.9443 59.1059C68.9547 59.1151 68.9652 59.1242 68.9759 59.133L81.704 70.9855C81.9171 71.1847 82.1977 71.296 82.4894 71.2969H82.5029H82.512C82.8037 71.296 83.0842 71.1847 83.2973 70.9855L96.0299 59.133C99.6435 55.7688 99.5217 50.0408 96.057 46.59C95.9487 46.4814 95.8198 46.3954 95.6779 46.3372H95.6734C92.1903 43.2163 86.8563 43.2509 83.5049 46.59L82.4984 47.592L81.4964 46.59C79.7643 44.8644 77.4945 44.0037 75.2226 44.0037ZM75.2226 46.2921V46.2966C76.8988 46.2966 78.5743 46.9405 79.867 48.2284L81.686 50.0383C81.9025 50.2535 82.1954 50.3743 82.5007 50.3743C82.806 50.3743 83.0989 50.2535 83.3154 50.0383L85.1343 48.2284C87.7199 45.6521 91.8375 45.6526 94.4231 48.2284C94.4261 48.2284 94.4291 48.2284 94.4321 48.2284C97.0128 50.8036 97.0908 54.9862 94.4547 57.4404L82.5029 68.5662L70.5782 57.4675C67.9928 54.892 67.9928 50.7989 70.5782 48.2238C71.871 46.936 73.5465 46.2921 75.2226 46.2921ZM35.1562 65.3842C34.8498 65.3842 34.5559 65.506 34.3392 65.7227C34.1225 65.9394 34.0008 66.2332 34.0007 66.5397V90.0731C34.0008 90.3796 34.1225 90.6734 34.3392 90.8901C34.5559 91.1068 34.8498 91.2286 35.1562 91.2286H41.4751H47.7985C48.105 91.2286 48.3989 91.1068 48.6155 90.8901C48.8322 90.6734 48.954 90.3796 48.954 90.0731V88.3715L70.5376 95.6834C70.5674 95.6922 70.5975 95.6997 70.6279 95.706C73.1411 96.3436 76.0401 95.9653 78.2331 94.4919L100.584 82.346C100.59 82.346 100.596 82.346 100.602 82.346L101.148 82.0346C103.014 80.9794 103.813 78.6825 102.981 76.7131C102.272 75.037 100.879 74.2678 99.7897 74.1088V74.0998C98.7005 73.9404 97.8082 74.2488 97.8082 74.2488C97.7698 74.2633 97.7321 74.2799 97.6954 74.2984L85.3735 80.0125C85.3895 79.8567 85.4232 79.7076 85.4232 79.5476C85.4232 76.9515 83.2726 74.84 80.6659 74.84H70.4067C70.3625 74.7615 70.3118 74.6506 70.2713 74.5782C70.0879 74.2469 69.8893 73.9275 69.6755 73.6169C69.2477 72.9955 68.7604 72.4158 68.2222 71.8882C66.0691 69.7788 63.0848 68.4805 59.8045 68.4805H48.954V66.5397C48.954 66.2332 48.8322 65.9394 48.6155 65.7227C48.3989 65.506 48.105 65.3842 47.7985 65.3842H41.4751H35.1562ZM36.3117 67.6951H41.4751H46.6431V88.9177H41.4751H36.3117V67.6951ZM48.954 70.7914H59.8045C62.4773 70.7914 64.8704 71.8437 66.6018 73.5401C67.0348 73.9644 67.4278 74.4278 67.7708 74.9258C67.9425 75.1751 68.1025 75.4323 68.2493 75.6976C68.4303 76.0251 68.5533 76.2244 68.651 76.4514L68.9489 77.1509H69.9644H80.6659C82.05 77.1509 83.1123 78.2096 83.1123 79.5476C83.1123 80.5511 82.5145 81.3911 81.6318 81.7502L81.6183 81.7547C81.3274 81.8712 81.007 81.9398 80.6659 81.9398H64.5933V84.2507H80.6659C81.1489 84.2507 81.6062 84.1549 82.0471 84.0205C82.1843 84.0113 82.3188 83.9777 82.4443 83.9212L98.571 76.4423C98.5907 76.4423 98.972 76.3165 99.4557 76.3882C99.9516 76.4598 100.428 76.5962 100.855 77.6068C101.236 78.5092 100.893 79.5183 100.011 80.017L99.4692 80.3194L77.0371 92.5149C77.0045 92.533 76.9729 92.5525 76.9423 92.5736C75.4184 93.5976 73.0519 93.9355 71.2011 93.4673H71.1966L48.954 85.9342V70.7914Z" fill="white" stroke="white" stroke-width="0.5"/>
</svg>
