<svg width="108" height="18" viewBox="0 0 108 18" fill="none" xmlns="http://www.w3.org/2000/svg">
<path d="M13.4384 10.7405C13.2441 10.9287 13.1549 11.201 13.1991 11.468L13.8659 15.158C13.9221 15.4707 13.7901 15.7872 13.5284 15.968C13.2719 16.1555 12.9306 16.178 12.6509 16.028L9.32911 14.2955C9.21361 14.234 9.08536 14.201 8.95411 14.1972H8.75086C8.68036 14.2077 8.61136 14.2302 8.54836 14.2647L5.22586 16.0055C5.06161 16.088 4.87561 16.1172 4.69336 16.088C4.24936 16.004 3.95311 15.581 4.02586 15.1347L4.69336 11.4447C4.73761 11.1755 4.64836 10.9017 4.45411 10.7105L1.74586 8.08549C1.51936 7.86574 1.44061 7.53574 1.54411 7.23799C1.64461 6.94099 1.90111 6.72424 2.21086 6.67549L5.93836 6.13474C6.22186 6.10549 6.47086 5.93299 6.59836 5.67799L8.24086 2.31049C8.27986 2.23549 8.33011 2.16649 8.39086 2.10799L8.45836 2.05549C8.49361 2.01649 8.53411 1.98424 8.57911 1.95799L8.66086 1.92799L8.78836 1.87549H9.10411C9.38611 1.90474 9.63436 2.07349 9.76411 2.32549L11.4284 5.67799C11.5484 5.92324 11.7816 6.09349 12.0509 6.13474L15.7784 6.67549C16.0934 6.72049 16.3566 6.93799 16.4609 7.23799C16.5591 7.53874 16.4744 7.86874 16.2434 8.08549L13.4384 10.7405Z" fill="#FFC200"/>
<path d="M35.9384 10.7405C35.7441 10.9287 35.6549 11.201 35.6991 11.468L36.3659 15.158C36.4221 15.4707 36.2901 15.7872 36.0284 15.968C35.7719 16.1555 35.4306 16.178 35.1509 16.028L31.8291 14.2955C31.7136 14.234 31.5854 14.201 31.4541 14.1972H31.2509C31.1804 14.2077 31.1114 14.2302 31.0484 14.2647L27.7259 16.0055C27.5616 16.088 27.3756 16.1172 27.1934 16.088C26.7494 16.004 26.4531 15.581 26.5259 15.1347L27.1934 11.4447C27.2376 11.1755 27.1484 10.9017 26.9541 10.7105L24.2459 8.08549C24.0194 7.86574 23.9406 7.53574 24.0441 7.23799C24.1446 6.94099 24.4011 6.72424 24.7109 6.67549L28.4384 6.13474C28.7219 6.10549 28.9709 5.93299 29.0984 5.67799L30.7409 2.31049C30.7799 2.23549 30.8301 2.16649 30.8909 2.10799L30.9584 2.05549C30.9936 2.01649 31.0341 1.98424 31.0791 1.95799L31.1609 1.92799L31.2884 1.87549H31.6041C31.8861 1.90474 32.1344 2.07349 32.2641 2.32549L33.9284 5.67799C34.0484 5.92324 34.2816 6.09349 34.5509 6.13474L38.2784 6.67549C38.5934 6.72049 38.8566 6.93799 38.9609 7.23799C39.0591 7.53874 38.9744 7.86874 38.7434 8.08549L35.9384 10.7405Z" fill="#FFC200"/>
<path d="M58.4384 10.7405C58.2441 10.9287 58.1549 11.201 58.1991 11.468L58.8659 15.158C58.9221 15.4707 58.7901 15.7872 58.5284 15.968C58.2719 16.1555 57.9306 16.178 57.6509 16.028L54.3291 14.2955C54.2136 14.234 54.0854 14.201 53.9541 14.1972H53.7509C53.6804 14.2077 53.6114 14.2302 53.5484 14.2647L50.2259 16.0055C50.0616 16.088 49.8756 16.1172 49.6934 16.088C49.2494 16.004 48.9531 15.581 49.0259 15.1347L49.6934 11.4447C49.7376 11.1755 49.6484 10.9017 49.4541 10.7105L46.7459 8.08549C46.5194 7.86574 46.4406 7.53574 46.5441 7.23799C46.6446 6.94099 46.9011 6.72424 47.2109 6.67549L50.9384 6.13474C51.2219 6.10549 51.4709 5.93299 51.5984 5.67799L53.2409 2.31049C53.2799 2.23549 53.3301 2.16649 53.3909 2.10799L53.4584 2.05549C53.4936 2.01649 53.5341 1.98424 53.5791 1.95799L53.6609 1.92799L53.7884 1.87549H54.1041C54.3861 1.90474 54.6344 2.07349 54.7641 2.32549L56.4284 5.67799C56.5484 5.92324 56.7816 6.09349 57.0509 6.13474L60.7784 6.67549C61.0934 6.72049 61.3566 6.93799 61.4609 7.23799C61.5591 7.53874 61.4744 7.86874 61.2434 8.08549L58.4384 10.7405Z" fill="#FFC200"/>
<path d="M80.9384 10.7405C80.7441 10.9287 80.6549 11.201 80.6991 11.468L81.3659 15.158C81.4221 15.4707 81.2901 15.7872 81.0284 15.968C80.7719 16.1555 80.4306 16.178 80.1509 16.028L76.8291 14.2955C76.7136 14.234 76.5854 14.201 76.4541 14.1972H76.2509C76.1804 14.2077 76.1114 14.2302 76.0484 14.2647L72.7259 16.0055C72.5616 16.088 72.3756 16.1172 72.1934 16.088C71.7494 16.004 71.4531 15.581 71.5259 15.1347L72.1934 11.4447C72.2376 11.1755 72.1484 10.9017 71.9541 10.7105L69.2459 8.08549C69.0194 7.86574 68.9406 7.53574 69.0441 7.23799C69.1446 6.94099 69.4011 6.72424 69.7109 6.67549L73.4384 6.13474C73.7219 6.10549 73.9709 5.93299 74.0984 5.67799L75.7409 2.31049C75.7799 2.23549 75.8301 2.16649 75.8909 2.10799L75.9584 2.05549C75.9936 2.01649 76.0341 1.98424 76.0791 1.95799L76.1609 1.92799L76.2884 1.87549H76.6041C76.8861 1.90474 77.1344 2.07349 77.2641 2.32549L78.9284 5.67799C79.0484 5.92324 79.2816 6.09349 79.5509 6.13474L83.2784 6.67549C83.5934 6.72049 83.8566 6.93799 83.9609 7.23799C84.0591 7.53874 83.9744 7.86874 83.7434 8.08549L80.9384 10.7405Z" fill="#FFC200"/>
<path d="M103.438 10.7405C103.244 10.9287 103.155 11.201 103.199 11.468L103.866 15.158C103.922 15.4707 103.79 15.7872 103.528 15.968C103.272 16.1555 102.931 16.178 102.651 16.028L99.3292 14.2955C99.2137 14.234 99.0854 14.201 98.9542 14.1972H98.7509C98.6804 14.2077 98.6114 14.2302 98.5484 14.2647L95.2259 16.0055C95.0617 16.088 94.8757 16.1172 94.6934 16.088C94.2494 16.004 93.9532 15.581 94.0259 15.1347L94.6934 11.4447C94.7377 11.1755 94.6484 10.9017 94.4542 10.7105L91.7459 8.08549C91.5194 7.86574 91.4407 7.53574 91.5442 7.23799C91.6447 6.94099 91.9012 6.72424 92.2109 6.67549L95.9384 6.13474C96.2219 6.10549 96.4709 5.93299 96.5984 5.67799L98.2409 2.31049C98.2799 2.23549 98.3302 2.16649 98.3909 2.10799L98.4584 2.05549C98.4937 2.01649 98.5342 1.98424 98.5792 1.95799L98.6609 1.92799L98.7884 1.87549H99.1042C99.3862 1.90474 99.6344 2.07349 99.7642 2.32549L101.428 5.67799C101.548 5.92324 101.782 6.09349 102.051 6.13474L105.778 6.67549C106.093 6.72049 106.357 6.93799 106.461 7.23799C106.559 7.53874 106.474 7.86874 106.243 8.08549L103.438 10.7405Z" fill="#FFC200"/>
</svg>
